<svg xmlns="http://www.w3.org/2000/svg" xmlns:xlink="http://www.w3.org/1999/xlink" width="500" zoomAndPan="magnify" viewBox="0 0 375 374.999991" height="500" preserveAspectRatio="xMidYMid meet" version="1.0"><defs><g/><clipPath id="c706b03219"><path d="M 225 42.265625 L 233 42.265625 L 233 50 L 225 50 Z M 225 42.265625 " clip-rule="nonzero"/></clipPath><clipPath id="dc572b635b"><path d="M 250 67 L 257.84375 67 L 257.84375 74 L 250 74 Z M 250 67 " clip-rule="nonzero"/></clipPath><clipPath id="23e9fdabe6"><path d="M 250 79 L 257.84375 79 L 257.84375 87 L 250 87 Z M 250 79 " clip-rule="nonzero"/></clipPath><clipPath id="743daed036"><path d="M 233 188 L 241 188 L 241 195.667969 L 233 195.667969 Z M 233 188 " clip-rule="nonzero"/></clipPath><clipPath id="8de89e39a8"><path d="M 142 42.265625 L 150 42.265625 L 150 50 L 142 50 Z M 142 42.265625 " clip-rule="nonzero"/></clipPath><clipPath id="085ab05d7e"><path d="M 117.226562 67 L 125 67 L 125 74 L 117.226562 74 Z M 117.226562 67 " clip-rule="nonzero"/></clipPath><clipPath id="6afb02bf02"><path d="M 117.226562 79 L 125 79 L 125 87 L 117.226562 87 Z M 117.226562 79 " clip-rule="nonzero"/></clipPath><clipPath id="e9b7251d5c"><path d="M 134 188 L 142 188 L 142 195.667969 L 134 195.667969 Z M 134 188 " clip-rule="nonzero"/></clipPath></defs><rect x="-37.5" width="450" fill="#ffffff" y="-37.499999" height="449.999989" fill-opacity="1"/><rect x="-37.5" width="450" fill="#ffffff" y="-37.499999" height="449.999989" fill-opacity="1"/><rect x="-37.5" width="450" fill="#f4c406" y="-37.499999" height="449.999989" fill-opacity="1"/><g fill="#000000" fill-opacity="1"><g transform="translate(93.80403, 277.023253)"><g><path d="M 36.195312 -56.59375 L 21.46875 -56.59375 L 0.824219 0 L 19.414062 0 Z M 44.339844 -51.824219 L 36.523438 -25.253906 L 37.839844 -20.648438 L 35.125 -20.648438 L 31.339844 -7.980469 L 41.625 -7.980469 L 44.007812 0 L 63.257812 0 Z M 44.339844 -51.824219 "/></g></g></g><g fill="#000000" fill-opacity="1"><g transform="translate(157.797193, 277.023253)"><g><path d="M 37.839844 0 L 32.164062 -18.753906 L 20.8125 -56.59375 L 1.398438 -56.59375 L 21.46875 0 Z M 45.160156 -7.402344 L 37.097656 -34.054688 L 43.925781 -56.59375 L 62.519531 -56.59375 Z M 45.160156 -7.402344 "/></g></g></g><g fill="#000000" fill-opacity="1"><g transform="translate(221.790357, 277.023253)"><g><path d="M 32.574219 -57.5 L 32.574219 -45.078125 C 36.359375 -44.421875 37.839844 -42.035156 37.839844 -39.484375 L 37.839844 -39.15625 L 54.867188 -39.15625 L 54.867188 -40.144531 C 54.621094 -51.414062 44.996094 -56.84375 32.574219 -57.5 Z M 23.03125 -57.089844 C 12.667969 -55.609375 4.441406 -50.34375 4.441406 -39.484375 C 4.441406 -17.4375 37.839844 -23.9375 37.839844 -15.792969 L 37.839844 0.574219 C 48.78125 -0.988281 56.429688 -6.828125 56.429688 -18.753906 C 56.019531 -39.730469 23.03125 -33.070312 23.03125 -41.542969 Z M 28.296875 -12.011719 C 23.609375 -12.257812 20.730469 -13.65625 20.730469 -19.167969 L 3.539062 -19.167969 C 3.539062 -4.113281 14.066406 0.410156 28.296875 0.90625 Z M 28.296875 -12.011719 "/></g></g></g><g fill="#000000" fill-opacity="1"><g transform="translate(64.363401, 320.157236)"><g><path d="M 1.644531 -14.113281 L 15.265625 -14.113281 L 12.929688 -16.449219 L 4.113281 -16.449219 Z M 15.394531 -2.335938 L 4.441406 -2.335938 L 4.441406 0 L 12.863281 0 Z M 4.113281 -13.785156 L 1.644531 -13.785156 L 1.644531 -2.46875 L 4.113281 0 Z M 4.113281 -13.785156 "/></g></g></g><g fill="#000000" fill-opacity="1"><g transform="translate(81.400648, 320.157236)"><g><path d="M 4.113281 -16.449219 L 1.644531 -16.449219 L 1.644531 -2.335938 L 4.113281 0 Z M 12.960938 0 L 15.429688 0 L 15.429688 -16.449219 L 12.960938 -16.449219 Z M 12.632812 -2.335938 L 4.441406 -2.335938 L 4.441406 0 L 10.164062 0 Z M 12.632812 -2.335938 "/></g></g></g><g fill="#000000" fill-opacity="1"><g transform="translate(98.470795, 320.157236)"><g><path d="M 13.554688 -16.449219 L 4.441406 -16.449219 L 4.441406 -14.113281 L 13.554688 -14.113281 Z M 4.113281 -16.449219 L 1.644531 -14.113281 L 1.644531 -9.867188 L 4.113281 -8.847656 Z M 2.304688 0 L 11.414062 0 L 11.414062 -2.335938 L 2.304688 -2.335938 Z M 11.746094 0 L 14.210938 -2.335938 L 14.210938 -4.242188 L 11.746094 -5.296875 Z M 14.210938 -7.074219 L 4.441406 -11.285156 L 4.441406 -8.785156 L 14.210938 -4.574219 Z M 14.210938 -7.074219 "/></g></g></g><g fill="#000000" fill-opacity="1"><g transform="translate(114.323976, 320.157236)"><g><path d="M 12.894531 -2.335938 L 5.460938 -2.335938 L 7.929688 0 L 12.894531 0 Z M 7.929688 -13.785156 L 5.460938 -13.785156 L 5.460938 -2.664062 L 7.929688 -2.664062 Z M 13.09375 -16.449219 L 1.316406 -16.449219 L 1.316406 -14.113281 L 13.09375 -14.113281 Z M 7.929688 -23.027344 L 5.460938 -23.027344 L 5.460938 -16.777344 L 7.929688 -16.777344 Z M 7.929688 -23.027344 "/></g></g></g><g fill="#000000" fill-opacity="1"><g transform="translate(128.729975, 320.157236)"><g><path d="M 15.394531 -2.335938 L 4.472656 -2.335938 L 4.472656 0 L 12.863281 0 Z M 1.644531 -14.113281 L 12.566406 -14.113281 L 12.566406 -16.449219 L 4.179688 -16.449219 Z M 4.113281 -13.785156 L 1.644531 -13.785156 L 1.644531 -2.46875 L 4.113281 0 Z M 12.929688 -2.664062 L 15.394531 -2.664062 L 15.394531 -13.980469 L 12.929688 -16.449219 Z M 12.929688 -2.664062 "/></g></g></g><g fill="#000000" fill-opacity="1"><g transform="translate(145.767222, 320.157236)"><g><path d="M 4.441406 -14.113281 L 10 -14.113281 L 10 -16.449219 L 6.183594 -16.449219 Z M 10.328125 -8.222656 L 12.796875 -8.222656 L 12.796875 -14.113281 L 10.328125 -16.449219 Z M 4.113281 -16.449219 L 1.644531 -16.449219 L 1.644531 0 L 4.113281 0 Z M 19.015625 -16.449219 L 14.871094 -16.449219 L 13.125 -14.113281 L 21.480469 -14.113281 Z M 19.015625 0 L 21.480469 0 L 21.480469 -13.785156 L 19.015625 -13.785156 Z M 19.015625 0 "/></g></g></g><g fill="#000000" fill-opacity="1"><g transform="translate(168.889188, 320.157236)"><g/></g></g><g fill="#000000" fill-opacity="1"><g transform="translate(177.440712, 320.157236)"><g><path d="M 8.160156 -0.03125 L 12.074219 -16.449219 L 9.539062 -16.449219 L 5.625 -0.03125 Z M 6.578125 -5.132812 L 3.847656 -16.449219 L 1.316406 -16.449219 L 5.296875 -0.03125 Z M 16.710938 -0.03125 L 20.625 -16.449219 L 18.09375 -16.449219 L 14.179688 -0.03125 Z M 15.132812 -5.132812 L 12.402344 -16.449219 L 11.121094 -11.25 L 13.851562 -0.03125 Z M 15.132812 -5.132812 "/></g></g></g><g fill="#000000" fill-opacity="1"><g transform="translate(199.378639, 320.157236)"><g><path d="M 15.394531 -2.335938 L 4.441406 -2.335938 L 4.441406 0 L 12.863281 0 Z M 1.644531 -14.113281 L 12.597656 -14.113281 L 12.597656 -16.449219 L 4.113281 -16.449219 Z M 4.113281 -13.785156 L 1.644531 -13.785156 L 1.644531 -2.46875 L 4.113281 0 Z M 12.929688 -9.210938 L 15.394531 -9.210938 L 15.394531 -13.980469 L 12.929688 -16.449219 Z M 15.394531 -8.882812 L 4.441406 -8.882812 L 4.441406 -6.546875 L 12.863281 -6.546875 Z M 15.394531 -8.882812 "/></g></g></g><g fill="#000000" fill-opacity="1"><g transform="translate(216.415886, 320.157236)"><g><path d="M 4.113281 0 L 12.597656 0 L 12.597656 -2.335938 L 1.777344 -2.335938 Z M 4.113281 -24.671875 L 1.644531 -24.671875 L 1.644531 -2.664062 L 4.113281 -2.664062 Z M 12.929688 0 L 15.394531 -2.269531 L 15.394531 -13.816406 L 12.929688 -13.816406 Z M 12.929688 -16.449219 L 4.472656 -16.449219 L 4.472656 -14.113281 L 15.265625 -14.113281 Z M 12.929688 -16.449219 "/></g></g></g><g fill="#000000" fill-opacity="1"><g transform="translate(233.453133, 320.157236)"><g><path d="M 1.644531 -12.5 L 1.644531 -10.035156 L 22.699219 -10.035156 L 22.699219 -12.5 Z M 1.644531 -12.5 "/></g></g></g><g fill="#000000" fill-opacity="1"><g transform="translate(257.792065, 320.157236)"><g><path d="M 12.929688 -2.632812 L 15.394531 -2.632812 L 15.394531 -24.671875 L 12.929688 -24.671875 Z M 4.113281 -13.785156 L 1.644531 -13.785156 L 1.644531 -2.46875 L 4.113281 0 Z M 1.644531 -14.113281 L 12.597656 -14.113281 L 12.597656 -16.449219 L 4.113281 -16.449219 Z M 15.394531 -2.335938 L 4.441406 -2.335938 L 4.441406 0 L 12.863281 0 Z M 15.394531 -2.335938 "/></g></g></g><g fill="#000000" fill-opacity="1"><g transform="translate(274.829312, 320.157236)"><g><path d="M 15.394531 -2.335938 L 4.441406 -2.335938 L 4.441406 0 L 12.863281 0 Z M 1.644531 -14.113281 L 12.597656 -14.113281 L 12.597656 -16.449219 L 4.113281 -16.449219 Z M 4.113281 -13.785156 L 1.644531 -13.785156 L 1.644531 -2.46875 L 4.113281 0 Z M 12.929688 -9.210938 L 15.394531 -9.210938 L 15.394531 -13.980469 L 12.929688 -16.449219 Z M 15.394531 -8.882812 L 4.441406 -8.882812 L 4.441406 -6.546875 L 12.863281 -6.546875 Z M 15.394531 -8.882812 "/></g></g></g><g fill="#000000" fill-opacity="1"><g transform="translate(291.866559, 320.157236)"><g><path d="M 10.855469 0 L 17.105469 -16.449219 L 14.476562 -16.449219 L 8.222656 0 Z M 9.210938 -3.453125 L 4.277344 -16.449219 L 1.644531 -16.449219 L 7.894531 0 Z M 9.210938 -3.453125 "/></g></g></g><path stroke-linecap="round" transform="matrix(0.0599834, 0, 0, -0.0600871, 60.010669, 246.683245)" fill="none" stroke-linejoin="round" d="M 1922.879458 1872.600883 L 2326.897324 1872.600883 L 2326.897324 2276.636662 L 1922.879458 2276.636662 Z M 1922.879458 1872.600883 " stroke="#181821" stroke-width="28" stroke-opacity="1" stroke-miterlimit="10"/><path stroke-linecap="round" transform="matrix(0.0599834, 0, 0, -0.0600871, 60.010669, 246.683245)" fill="none" stroke-linejoin="round" d="M 2450.694546 2088.303331 L 2450.694546 2451.968037 L 2725.444929 2726.699364 L 3162.675096 2726.699364 " stroke="#181821" stroke-width="28" stroke-opacity="1" stroke-miterlimit="10"/><path stroke-linecap="round" transform="matrix(0.0599834, 0, 0, -0.0600871, 60.010669, 246.683245)" fill="none" stroke-linejoin="round" d="M 2326.897324 2088.303331 L 2806.65226 2088.303331 L 2806.65226 2482.912692 L 3031.063215 2482.912692 " stroke="#181821" stroke-width="28" stroke-opacity="1" stroke-miterlimit="10"/><path stroke-linecap="round" transform="matrix(0.0599834, 0, 0, -0.0600871, 60.010669, 246.683245)" fill="none" stroke-linejoin="round" d="M 2388.763374 2088.303331 L 2806.65226 1656.833426 L 2976.88158 1656.833426 " stroke="#181821" stroke-width="28" stroke-opacity="1" stroke-miterlimit="10"/><path stroke-linecap="round" transform="matrix(0.0599834, 0, 0, -0.0600871, 60.010669, 246.683245)" fill="none" stroke-linejoin="round" d="M 2609.983344 1859.988986 L 2609.983344 1345.371573 L 2938.199018 1345.371573 " stroke="#181821" stroke-width="28" stroke-opacity="1" stroke-miterlimit="10"/><path stroke-linecap="round" transform="matrix(0.0599834, 0, 0, -0.0600871, 60.010669, 246.683245)" fill="none" stroke-linejoin="round" d="M 2328.5905 1872.600883 L 2328.5905 1306.690754 L 2572.798592 1062.579033 " stroke="#181821" stroke-width="28" stroke-opacity="1" stroke-miterlimit="10"/><path stroke-linecap="round" transform="matrix(0.0599834, 0, 0, -0.0600871, 60.010669, 246.683245)" fill="none" stroke-linejoin="round" d="M 2326.897324 2276.636662 L 2326.897324 2962.099775 " stroke="#181821" stroke-width="28" stroke-opacity="1" stroke-miterlimit="10"/><path stroke-linecap="round" transform="matrix(0.0599834, 0, 0, -0.0600871, 60.010669, 246.683245)" fill="none" stroke-linejoin="round" d="M 2737.036673 1345.371573 L 2737.036673 1113.221651 L 2907.265993 942.961039 " stroke="#181821" stroke-width="28" stroke-opacity="1" stroke-miterlimit="10"/><path stroke-linecap="round" transform="matrix(0.0599834, 0, 0, -0.0600871, 60.010669, 246.683245)" fill="none" stroke-linejoin="round" d="M 2774.091181 2726.699364 L 2979.356222 2931.935238 L 3162.675096 2931.935238 " stroke="#181821" stroke-width="28" stroke-opacity="1" stroke-miterlimit="10"/><path stroke-linecap="round" transform="matrix(0.0599834, 0, 0, -0.0600871, 60.010669, 246.683245)" fill="none" stroke-linejoin="round" d="M 2370.724536 3005.981376 C 2370.724536 2981.797738 2351.122767 2962.099775 2326.897324 2962.099775 C 2302.671881 2962.099775 2283.070112 2981.797738 2283.070112 3005.981376 C 2283.070112 3030.230024 2302.671881 3049.862977 2326.897324 3049.862977 C 2351.122767 3049.862977 2370.724536 3030.230024 2370.724536 3005.981376 Z M 2370.724536 3005.981376 " stroke="#181821" stroke-width="28" stroke-opacity="1" stroke-miterlimit="10"/><g clip-path="url(#c706b03219)"><path stroke-linecap="round" transform="matrix(0.0599834, 0, 0, -0.0600871, 60.010669, 246.683245)" fill="none" stroke-linejoin="round" d="M 2866.043668 3344.552307 C 2866.043668 3320.303659 2846.376776 3300.670706 2822.151333 3300.670706 C 2797.925891 3300.670706 2778.258999 3320.303659 2778.258999 3344.552307 C 2778.258999 3368.735945 2797.925891 3388.433908 2822.151333 3388.433908 C 2846.376776 3388.433908 2866.043668 3368.735945 2866.043668 3344.552307 Z M 2866.043668 3344.552307 " stroke="#181821" stroke-width="28" stroke-opacity="1" stroke-miterlimit="10"/></g><g clip-path="url(#dc572b635b)"><path stroke-linecap="round" transform="matrix(0.0599834, 0, 0, -0.0600871, 60.010669, 246.683245)" fill="none" stroke-linejoin="round" d="M 3280.025224 2931.805218 C 3280.025224 2907.55657 3260.358332 2887.923617 3236.198012 2887.923617 C 3211.907447 2887.923617 3192.305678 2907.55657 3192.305678 2931.805218 C 3192.305678 2956.053866 3211.907447 2975.686819 3236.198012 2975.686819 C 3260.358332 2975.686819 3280.025224 2956.053866 3280.025224 2931.805218 Z M 3280.025224 2931.805218 " stroke="#181821" stroke-width="28" stroke-opacity="1" stroke-miterlimit="10"/></g><g clip-path="url(#23e9fdabe6)"><path stroke-linecap="round" transform="matrix(0.0599834, 0, 0, -0.0600871, 60.010669, 246.683245)" fill="none" stroke-linejoin="round" d="M 3280.025224 2726.699364 C 3280.025224 2702.515726 3260.358332 2682.882773 3236.198012 2682.882773 C 3211.907447 2682.882773 3192.305678 2702.515726 3192.305678 2726.699364 C 3192.305678 2750.948012 3211.907447 2770.580965 3236.198012 2770.580965 C 3260.358332 2770.580965 3280.025224 2750.948012 3280.025224 2726.699364 Z M 3280.025224 2726.699364 " stroke="#181821" stroke-width="28" stroke-opacity="1" stroke-miterlimit="10"/></g><path stroke-linecap="round" transform="matrix(0.0599834, 0, 0, -0.0600871, 60.010669, 246.683245)" fill="none" stroke-linejoin="round" d="M 3148.478465 2482.912692 C 3148.478465 2458.729054 3128.876696 2439.0961 3104.586131 2439.0961 C 3080.360689 2439.0961 3060.758919 2458.729054 3060.758919 2482.912692 C 3060.758919 2507.226349 3080.360689 2526.859303 3104.586131 2526.859303 C 3128.876696 2526.859303 3148.478465 2507.226349 3148.478465 2482.912692 Z M 3148.478465 2482.912692 " stroke="#181821" stroke-width="28" stroke-opacity="1" stroke-miterlimit="10"/><path stroke-linecap="round" transform="matrix(0.0599834, 0, 0, -0.0600871, 60.010669, 246.683245)" fill="none" stroke-linejoin="round" d="M 3043.827158 1345.371573 C 3043.827158 1321.122925 3024.160266 1301.554982 2999.934824 1301.554982 C 2975.774503 1301.554982 2956.107612 1321.122925 2956.107612 1345.371573 C 2956.107612 1369.62022 2975.774503 1389.253174 2999.934824 1389.253174 C 3024.160266 1389.253174 3043.827158 1369.62022 3043.827158 1345.371573 Z M 3043.827158 1345.371573 " stroke="#181821" stroke-width="28" stroke-opacity="1" stroke-miterlimit="10"/><path stroke-linecap="round" transform="matrix(0.0599834, 0, 0, -0.0600871, 60.010669, 246.683245)" fill="none" stroke-linejoin="round" d="M 3064.666249 1656.833426 C 3064.666249 1632.649788 3045.064479 1612.951825 3020.773914 1612.951825 C 2996.548472 1612.951825 2976.88158 1632.649788 2976.88158 1656.833426 C 2976.88158 1681.082073 2996.548472 1700.780036 3020.773914 1700.780036 C 3045.064479 1700.780036 3064.666249 1681.082073 3064.666249 1656.833426 Z M 3064.666249 1656.833426 " stroke="#181821" stroke-width="28" stroke-opacity="1" stroke-miterlimit="10"/><g clip-path="url(#743daed036)"><path stroke-linecap="round" transform="matrix(0.0599834, 0, 0, -0.0600871, 60.010669, 246.683245)" fill="none" stroke-linejoin="round" d="M 2988.538446 907.465699 C 2988.538446 883.217051 2968.936677 863.584098 2944.711234 863.584098 C 2920.485791 863.584098 2900.8189 883.217051 2900.8189 907.465699 C 2900.8189 931.714347 2920.485791 951.3473 2944.711234 951.3473 C 2968.936677 951.3473 2988.538446 931.714347 2988.538446 907.465699 Z M 2988.538446 907.465699 " stroke="#181821" stroke-width="28" stroke-opacity="1" stroke-miterlimit="10"/></g><path stroke-linecap="round" transform="matrix(0.0599834, 0, 0, -0.0600871, 60.010669, 246.683245)" fill="none" stroke-linejoin="round" d="M 2643.586377 1018.632422 C 2643.586377 994.448784 2623.919485 974.750821 2599.628921 974.750821 C 2575.4686 974.750821 2555.801708 994.448784 2555.801708 1018.632422 C 2555.801708 1042.88107 2575.4686 1062.579033 2599.628921 1062.579033 C 2623.919485 1062.579033 2643.586377 1042.88107 2643.586377 1018.632422 Z M 2643.586377 1018.632422 " stroke="#181821" stroke-width="28" stroke-opacity="1" stroke-miterlimit="10"/><path stroke-linecap="round" transform="matrix(0.0599834, 0, 0, -0.0600871, 60.010669, 246.683245)" fill="none" stroke-linejoin="round" d="M 2326.897324 2642.901759 L 2632.255122 2948.252692 L 2632.255122 3153.618585 L 2789.069277 3310.487183 " stroke="#181821" stroke-width="28" stroke-opacity="1" stroke-miterlimit="10"/><path stroke-linecap="round" transform="matrix(0.0599834, 0, 0, -0.0600871, 60.010669, 246.683245)" fill="none" stroke-linejoin="round" d="M 1801.296389 2088.303331 L 1801.296389 2451.968037 L 1526.546006 2726.699364 L 1089.31584 2726.699364 " stroke="#181821" stroke-width="28" stroke-opacity="1" stroke-miterlimit="10"/><path stroke-linecap="round" transform="matrix(0.0599834, 0, 0, -0.0600871, 60.010669, 246.683245)" fill="none" stroke-linejoin="round" d="M 1925.093611 2088.303331 L 1445.338676 2088.303331 L 1445.338676 2482.912692 L 1220.92772 2482.912692 " stroke="#181821" stroke-width="28" stroke-opacity="1" stroke-miterlimit="10"/><path stroke-linecap="round" transform="matrix(0.0599834, 0, 0, -0.0600871, 60.010669, 246.683245)" fill="none" stroke-linejoin="round" d="M 1863.227561 2088.303331 L 1445.338676 1656.833426 L 1275.044233 1656.833426 " stroke="#181821" stroke-width="28" stroke-opacity="1" stroke-miterlimit="10"/><path stroke-linecap="round" transform="matrix(0.0599834, 0, 0, -0.0600871, 60.010669, 246.683245)" fill="none" stroke-linejoin="round" d="M 1642.072714 1859.988986 L 1642.072714 1345.371573 L 1313.726795 1345.371573 " stroke="#181821" stroke-width="28" stroke-opacity="1" stroke-miterlimit="10"/><path stroke-linecap="round" transform="matrix(0.0599834, 0, 0, -0.0600871, 60.010669, 246.683245)" fill="none" stroke-linejoin="round" d="M 1923.335313 1872.600883 L 1923.335313 1306.690754 L 1679.192344 1062.579033 " stroke="#181821" stroke-width="28" stroke-opacity="1" stroke-miterlimit="10"/><path stroke-linecap="round" transform="matrix(0.0599834, 0, 0, -0.0600871, 60.010669, 246.683245)" fill="none" stroke-linejoin="round" d="M 1925.093611 2276.636662 L 1925.093611 2962.099775 " stroke="#181821" stroke-width="28" stroke-opacity="1" stroke-miterlimit="10"/><path stroke-linecap="round" transform="matrix(0.0599834, 0, 0, -0.0600871, 60.010669, 246.683245)" fill="none" stroke-linejoin="round" d="M 1514.954262 1345.371573 L 1514.954262 1113.221651 L 1344.65982 942.961039 " stroke="#181821" stroke-width="28" stroke-opacity="1" stroke-miterlimit="10"/><path stroke-linecap="round" transform="matrix(0.0599834, 0, 0, -0.0600871, 60.010669, 246.683245)" fill="none" stroke-linejoin="round" d="M 1477.899754 2726.699364 L 1272.634713 2931.935238 L 1089.31584 2931.935238 " stroke="#181821" stroke-width="28" stroke-opacity="1" stroke-miterlimit="10"/><path stroke-linecap="round" transform="matrix(0.0599834, 0, 0, -0.0600871, 60.010669, 246.683245)" fill="none" stroke-linejoin="round" d="M 1881.201277 3005.981376 C 1881.201277 2981.797738 1900.868169 2962.099775 1925.093611 2962.099775 C 1949.319054 2962.099775 1968.985946 2981.797738 1968.985946 3005.981376 C 1968.985946 3030.230024 1949.319054 3049.862977 1925.093611 3049.862977 C 1900.868169 3049.862977 1881.201277 3030.230024 1881.201277 3005.981376 Z M 1881.201277 3005.981376 " stroke="#181821" stroke-width="28" stroke-opacity="1" stroke-miterlimit="10"/><g clip-path="url(#8de89e39a8)"><path stroke-linecap="round" transform="matrix(0.0599834, 0, 0, -0.0600871, 60.010669, 246.683245)" fill="none" stroke-linejoin="round" d="M 1385.947268 3344.552307 C 1385.947268 3320.303659 1405.614159 3300.670706 1429.839602 3300.670706 C 1454.065045 3300.670706 1473.731936 3320.303659 1473.731936 3344.552307 C 1473.731936 3368.735945 1454.065045 3388.433908 1429.839602 3388.433908 C 1405.614159 3388.433908 1385.947268 3368.735945 1385.947268 3344.552307 Z M 1385.947268 3344.552307 " stroke="#181821" stroke-width="28" stroke-opacity="1" stroke-miterlimit="10"/></g><g clip-path="url(#085ab05d7e)"><path stroke-linecap="round" transform="matrix(0.0599834, 0, 0, -0.0600871, 60.010669, 246.683245)" fill="none" stroke-linejoin="round" d="M 971.965711 2931.805218 C 971.965711 2907.55657 991.632603 2887.923617 1015.792924 2887.923617 C 1040.018366 2887.923617 1059.685258 2907.55657 1059.685258 2931.805218 C 1059.685258 2956.053866 1040.018366 2975.686819 1015.792924 2975.686819 C 991.632603 2975.686819 971.965711 2956.053866 971.965711 2931.805218 Z M 971.965711 2931.805218 " stroke="#181821" stroke-width="28" stroke-opacity="1" stroke-miterlimit="10"/></g><g clip-path="url(#6afb02bf02)"><path stroke-linecap="round" transform="matrix(0.0599834, 0, 0, -0.0600871, 60.010669, 246.683245)" fill="none" stroke-linejoin="round" d="M 971.965711 2726.699364 C 971.965711 2702.515726 991.632603 2682.882773 1015.792924 2682.882773 C 1040.018366 2682.882773 1059.685258 2702.515726 1059.685258 2726.699364 C 1059.685258 2750.948012 1040.018366 2770.580965 1015.792924 2770.580965 C 991.632603 2770.580965 971.965711 2750.948012 971.965711 2726.699364 Z M 971.965711 2726.699364 " stroke="#181821" stroke-width="28" stroke-opacity="1" stroke-miterlimit="10"/></g><path stroke-linecap="round" transform="matrix(0.0599834, 0, 0, -0.0600871, 60.010669, 246.683245)" fill="none" stroke-linejoin="round" d="M 1103.51247 2482.912692 C 1103.51247 2458.729054 1123.114239 2439.0961 1147.404804 2439.0961 C 1171.630247 2439.0961 1191.232016 2458.729054 1191.232016 2482.912692 C 1191.232016 2507.226349 1171.630247 2526.859303 1147.404804 2526.859303 C 1123.114239 2526.859303 1103.51247 2507.226349 1103.51247 2482.912692 Z M 1103.51247 2482.912692 " stroke="#181821" stroke-width="28" stroke-opacity="1" stroke-miterlimit="10"/><path stroke-linecap="round" transform="matrix(0.0599834, 0, 0, -0.0600871, 60.010669, 246.683245)" fill="none" stroke-linejoin="round" d="M 1208.098655 1345.371573 C 1208.098655 1321.122925 1227.830669 1301.554982 1252.056112 1301.554982 C 1276.281554 1301.554982 1295.883324 1321.122925 1295.883324 1345.371573 C 1295.883324 1369.62022 1276.281554 1389.253174 1252.056112 1389.253174 C 1227.830669 1389.253174 1208.098655 1369.62022 1208.098655 1345.371573 Z M 1208.098655 1345.371573 " stroke="#181821" stroke-width="28" stroke-opacity="1" stroke-miterlimit="10"/><path stroke-linecap="round" transform="matrix(0.0599834, 0, 0, -0.0600871, 60.010669, 246.683245)" fill="none" stroke-linejoin="round" d="M 1187.324687 1656.833426 C 1187.324687 1632.649788 1206.926456 1612.951825 1231.151899 1612.951825 C 1255.442464 1612.951825 1275.044233 1632.649788 1275.044233 1656.833426 C 1275.044233 1681.082073 1255.442464 1700.780036 1231.151899 1700.780036 C 1206.926456 1700.780036 1187.324687 1681.082073 1187.324687 1656.833426 Z M 1187.324687 1656.833426 " stroke="#181821" stroke-width="28" stroke-opacity="1" stroke-miterlimit="10"/><g clip-path="url(#e9b7251d5c)"><path stroke-linecap="round" transform="matrix(0.0599834, 0, 0, -0.0600871, 60.010669, 246.683245)" fill="none" stroke-linejoin="round" d="M 1263.387367 907.465699 C 1263.387367 883.217051 1283.054259 863.584098 1307.279701 863.584098 C 1331.505144 863.584098 1351.172036 883.217051 1351.172036 907.465699 C 1351.172036 931.714347 1331.505144 951.3473 1307.279701 951.3473 C 1283.054259 951.3473 1263.387367 931.714347 1263.387367 907.465699 Z M 1263.387367 907.465699 " stroke="#181821" stroke-width="28" stroke-opacity="1" stroke-miterlimit="10"/></g><path stroke-linecap="round" transform="matrix(0.0599834, 0, 0, -0.0600871, 60.010669, 246.683245)" fill="none" stroke-linejoin="round" d="M 1608.469681 1018.632422 C 1608.469681 994.448784 1628.07145 974.750821 1652.296893 974.750821 C 1676.587458 974.750821 1696.189227 994.448784 1696.189227 1018.632422 C 1696.189227 1042.88107 1676.587458 1062.579033 1652.296893 1062.579033 C 1628.07145 1062.579033 1608.469681 1042.88107 1608.469681 1018.632422 Z M 1608.469681 1018.632422 " stroke="#181821" stroke-width="28" stroke-opacity="1" stroke-miterlimit="10"/><path stroke-linecap="round" transform="matrix(0.0599834, 0, 0, -0.0600871, 60.010669, 246.683245)" fill="none" stroke-linejoin="round" d="M 1925.093611 2642.901759 L 1619.735814 2948.252692 L 1619.735814 3153.618585 L 1462.921658 3310.487183 " stroke="#181821" stroke-width="28" stroke-opacity="1" stroke-miterlimit="10"/><path fill="#000000" d="M 220.359375 92.441406 C 220.359375 91.746094 220.902344 91.109375 221.785156 90.636719 L 221.785156 84.628906 L 153.285156 84.628906 L 153.285156 90.613281 C 154.191406 91.089844 154.75 91.734375 154.75 92.441406 C 154.75 93.152344 154.191406 93.792969 153.285156 94.269531 L 153.285156 153.246094 L 221.785156 153.246094 L 221.785156 94.246094 C 220.902344 93.769531 220.359375 93.140625 220.359375 92.441406 " fill-opacity="1" fill-rule="nonzero"/><path stroke-linecap="round" transform="matrix(0.0599834, 0, 0, -0.0600871, 60.010669, 246.683245)" fill="none" stroke-linejoin="round" d="M 2673.216959 2566.970336 C 2673.216959 2578.542077 2682.268939 2589.138671 2696.986546 2597.004854 L 2696.986546 2696.989895 L 1555.004389 2696.989895 L 1555.004389 2597.394913 C 1570.11273 2589.46372 1579.425198 2578.737106 1579.425198 2566.970336 C 1579.425198 2555.138557 1570.11273 2544.476953 1555.004389 2536.54576 L 1555.004389 1555.028111 L 2696.986546 1555.028111 L 2696.986546 2536.935818 C 2682.268939 2544.867011 2673.216959 2555.333586 2673.216959 2566.970336 Z M 2673.216959 2566.970336 " stroke="#181821" stroke-width="28" stroke-opacity="1" stroke-miterlimit="10"/><path fill="#000000" d="M 164.113281 89.113281 L 157.625 89.113281 L 157.625 92.910156 L 164.113281 92.910156 L 164.113281 89.113281 " fill-opacity="1" fill-rule="nonzero"/><path stroke-linecap="round" transform="matrix(0.0599834, 0, 0, -0.0600871, 60.010669, 246.683245)" fill="none" stroke-linejoin="round" d="M 1627.355106 2559.169163 L 1735.52301 2559.169163 L 1735.52301 2622.358668 L 1627.355106 2622.358668 Z M 1627.355106 2559.169163 " stroke="#181821" stroke-width="28" stroke-opacity="1" stroke-miterlimit="10"/><path fill="#000000" d="M 173.003906 89.113281 L 166.515625 89.113281 L 166.515625 92.910156 L 173.003906 92.910156 L 173.003906 89.113281 " fill-opacity="1" fill-rule="nonzero"/><path stroke-linecap="round" transform="matrix(0.0599834, 0, 0, -0.0600871, 60.010669, 246.683245)" fill="none" stroke-linejoin="round" d="M 1775.573137 2559.169163 L 1883.741041 2559.169163 L 1883.741041 2622.358668 L 1775.573137 2622.358668 Z M 1775.573137 2559.169163 " stroke="#181821" stroke-width="28" stroke-opacity="1" stroke-miterlimit="10"/><path fill="#000000" d="M 181.890625 89.113281 L 175.402344 89.113281 L 175.402344 92.910156 L 181.890625 92.910156 L 181.890625 89.113281 " fill-opacity="1" fill-rule="nonzero"/><path stroke-linecap="round" transform="matrix(0.0599834, 0, 0, -0.0600871, 60.010669, 246.683245)" fill="none" stroke-linejoin="round" d="M 1923.726046 2559.169163 L 2031.89395 2559.169163 L 2031.89395 2622.358668 L 1923.726046 2622.358668 Z M 1923.726046 2559.169163 " stroke="#181821" stroke-width="28" stroke-opacity="1" stroke-miterlimit="10"/><path fill="#000000" d="M 190.777344 89.113281 L 184.292969 89.113281 L 184.292969 92.910156 L 190.777344 92.910156 L 190.777344 89.113281 " fill-opacity="1" fill-rule="nonzero"/><path stroke-linecap="round" transform="matrix(0.0599834, 0, 0, -0.0600871, 60.010669, 246.683245)" fill="none" stroke-linejoin="round" d="M 2071.944077 2559.169163 L 2180.046859 2559.169163 L 2180.046859 2622.358668 L 2071.944077 2622.358668 Z M 2071.944077 2559.169163 " stroke="#181821" stroke-width="28" stroke-opacity="1" stroke-miterlimit="10"/><path fill="#000000" d="M 199.667969 89.113281 L 193.179688 89.113281 L 193.179688 92.910156 L 199.667969 92.910156 L 199.667969 89.113281 " fill-opacity="1" fill-rule="nonzero"/><path stroke-linecap="round" transform="matrix(0.0599834, 0, 0, -0.0600871, 60.010669, 246.683245)" fill="none" stroke-linejoin="round" d="M 2220.096986 2559.169163 L 2328.264889 2559.169163 L 2328.264889 2622.358668 L 2220.096986 2622.358668 Z M 2220.096986 2559.169163 " stroke="#181821" stroke-width="28" stroke-opacity="1" stroke-miterlimit="10"/><path fill="#000000" d="M 208.554688 89.113281 L 202.0625 89.113281 L 202.0625 92.910156 L 208.554688 92.910156 L 208.554688 89.113281 " fill-opacity="1" fill-rule="nonzero"/><path stroke-linecap="round" transform="matrix(0.0599834, 0, 0, -0.0600871, 60.010669, 246.683245)" fill="none" stroke-linejoin="round" d="M 2368.184772 2559.169163 L 2476.417798 2559.169163 L 2476.417798 2622.358668 L 2368.184772 2622.358668 Z M 2368.184772 2559.169163 " stroke="#181821" stroke-width="28" stroke-opacity="1" stroke-miterlimit="10"/><path fill="#000000" d="M 210.953125 92.910156 L 217.445312 92.910156 L 217.445312 89.113281 L 210.953125 89.113281 L 210.953125 92.910156 " fill-opacity="1" fill-rule="nonzero"/><path stroke-linecap="round" transform="matrix(0.0599834, 0, 0, -0.0600871, 60.010669, 246.683245)" fill="none" stroke-linejoin="round" d="M 2516.402803 2559.169163 L 2624.635829 2559.169163 L 2624.635829 2622.358668 L 2516.402803 2622.358668 Z M 2516.402803 2559.169163 " stroke="#181821" stroke-width="28" stroke-opacity="1" stroke-miterlimit="10"/><path fill="#000000" d="M 164.113281 95.878906 L 157.953125 95.878906 C 157.976562 95.96875 157.988281 96.0625 157.988281 96.15625 C 157.988281 96.480469 157.859375 96.785156 157.625 97.066406 L 157.625 102.21875 L 164.113281 102.21875 L 164.113281 95.878906 " fill-opacity="1" fill-rule="nonzero"/><path stroke-linecap="round" transform="matrix(0.0599834, 0, 0, -0.0600871, 60.010669, 246.683245)" fill="none" stroke-linejoin="round" d="M 1735.52301 2509.761731 L 1632.825368 2509.761731 C 1633.216101 2508.266506 1633.411467 2506.706271 1633.411467 2505.146036 C 1633.411467 2499.750225 1631.262436 2494.679462 1627.355106 2489.998758 L 1627.355106 2404.250859 L 1735.52301 2404.250859 Z M 1735.52301 2509.761731 " stroke="#181821" stroke-width="28" stroke-opacity="1" stroke-miterlimit="10"/><path fill="#000000" d="M 173.003906 95.878906 L 166.515625 95.878906 L 166.515625 102.21875 L 173.003906 102.21875 L 173.003906 95.878906 " fill-opacity="1" fill-rule="nonzero"/><path stroke-linecap="round" transform="matrix(0.0599834, 0, 0, -0.0600871, 60.010669, 246.683245)" fill="none" stroke-linejoin="round" d="M 1775.573137 2404.250859 L 1883.741041 2404.250859 L 1883.741041 2509.761731 L 1775.573137 2509.761731 Z M 1775.573137 2404.250859 " stroke="#181821" stroke-width="28" stroke-opacity="1" stroke-miterlimit="10"/><path fill="#000000" d="M 181.890625 95.878906 L 175.402344 95.878906 L 175.402344 102.21875 L 181.890625 102.21875 L 181.890625 95.878906 " fill-opacity="1" fill-rule="nonzero"/><path stroke-linecap="round" transform="matrix(0.0599834, 0, 0, -0.0600871, 60.010669, 246.683245)" fill="none" stroke-linejoin="round" d="M 1923.726046 2404.250859 L 2031.89395 2404.250859 L 2031.89395 2509.761731 L 1923.726046 2509.761731 Z M 1923.726046 2404.250859 " stroke="#181821" stroke-width="28" stroke-opacity="1" stroke-miterlimit="10"/><path fill="#000000" d="M 190.777344 95.878906 L 184.292969 95.878906 L 184.292969 102.21875 L 190.777344 102.21875 L 190.777344 95.878906 " fill-opacity="1" fill-rule="nonzero"/><path stroke-linecap="round" transform="matrix(0.0599834, 0, 0, -0.0600871, 60.010669, 246.683245)" fill="none" stroke-linejoin="round" d="M 2071.944077 2404.250859 L 2180.046859 2404.250859 L 2180.046859 2509.761731 L 2071.944077 2509.761731 Z M 2071.944077 2404.250859 " stroke="#181821" stroke-width="28" stroke-opacity="1" stroke-miterlimit="10"/><path fill="#000000" d="M 199.667969 95.878906 L 193.179688 95.878906 L 193.179688 102.21875 L 199.667969 102.21875 L 199.667969 95.878906 " fill-opacity="1" fill-rule="nonzero"/><path stroke-linecap="round" transform="matrix(0.0599834, 0, 0, -0.0600871, 60.010669, 246.683245)" fill="none" stroke-linejoin="round" d="M 2220.096986 2404.250859 L 2328.264889 2404.250859 L 2328.264889 2509.761731 L 2220.096986 2509.761731 Z M 2220.096986 2404.250859 " stroke="#181821" stroke-width="28" stroke-opacity="1" stroke-miterlimit="10"/><path fill="#000000" d="M 208.554688 95.878906 L 202.0625 95.878906 L 202.0625 102.21875 L 208.554688 102.21875 L 208.554688 95.878906 " fill-opacity="1" fill-rule="nonzero"/><path stroke-linecap="round" transform="matrix(0.0599834, 0, 0, -0.0600871, 60.010669, 246.683245)" fill="none" stroke-linejoin="round" d="M 2368.184772 2404.250859 L 2476.417798 2404.250859 L 2476.417798 2509.761731 L 2368.184772 2509.761731 Z M 2368.184772 2404.250859 " stroke="#181821" stroke-width="28" stroke-opacity="1" stroke-miterlimit="10"/><path fill="#000000" d="M 210.953125 95.878906 L 210.953125 102.21875 L 217.445312 102.21875 L 217.445312 97.019531 C 217.234375 96.75 217.117188 96.460938 217.117188 96.15625 C 217.117188 96.0625 217.132812 95.96875 217.152344 95.878906 L 210.953125 95.878906 " fill-opacity="1" fill-rule="nonzero"/><path stroke-linecap="round" transform="matrix(0.0599834, 0, 0, -0.0600871, 60.010669, 246.683245)" fill="none" stroke-linejoin="round" d="M 2516.402803 2509.761731 L 2516.402803 2404.250859 L 2624.635829 2404.250859 L 2624.635829 2490.778875 C 2621.119233 2495.26455 2619.165568 2500.075273 2619.165568 2505.146036 C 2619.165568 2506.706271 2619.426056 2508.266506 2619.751667 2509.761731 Z M 2516.402803 2509.761731 " stroke="#181821" stroke-width="28" stroke-opacity="1" stroke-miterlimit="10"/><path fill="#000000" d="M 164.113281 105.1875 L 157.625 105.1875 L 157.625 111.527344 L 164.113281 111.527344 L 164.113281 105.1875 " fill-opacity="1" fill-rule="nonzero"/><path stroke-linecap="round" transform="matrix(0.0599834, 0, 0, -0.0600871, 60.010669, 246.683245)" fill="none" stroke-linejoin="round" d="M 1627.355106 2249.332555 L 1735.52301 2249.332555 L 1735.52301 2354.843426 L 1627.355106 2354.843426 Z M 1627.355106 2249.332555 " stroke="#181821" stroke-width="28" stroke-opacity="1" stroke-miterlimit="10"/><path fill="#000000" d="M 173.003906 105.1875 L 166.515625 105.1875 L 166.515625 111.527344 L 173.003906 111.527344 L 173.003906 105.1875 " fill-opacity="1" fill-rule="nonzero"/><path stroke-linecap="round" transform="matrix(0.0599834, 0, 0, -0.0600871, 60.010669, 246.683245)" fill="none" stroke-linejoin="round" d="M 1775.573137 2249.332555 L 1883.741041 2249.332555 L 1883.741041 2354.843426 L 1775.573137 2354.843426 Z M 1775.573137 2249.332555 " stroke="#181821" stroke-width="28" stroke-opacity="1" stroke-miterlimit="10"/><path fill="#000000" d="M 181.890625 105.1875 L 175.402344 105.1875 L 175.402344 111.527344 L 181.890625 111.527344 L 181.890625 105.1875 " fill-opacity="1" fill-rule="nonzero"/><path stroke-linecap="round" transform="matrix(0.0599834, 0, 0, -0.0600871, 60.010669, 246.683245)" fill="none" stroke-linejoin="round" d="M 1923.726046 2249.332555 L 2031.89395 2249.332555 L 2031.89395 2354.843426 L 1923.726046 2354.843426 Z M 1923.726046 2249.332555 " stroke="#181821" stroke-width="28" stroke-opacity="1" stroke-miterlimit="10"/><path fill="#000000" d="M 190.777344 105.1875 L 184.292969 105.1875 L 184.292969 111.527344 L 190.777344 111.527344 L 190.777344 105.1875 " fill-opacity="1" fill-rule="nonzero"/><path stroke-linecap="round" transform="matrix(0.0599834, 0, 0, -0.0600871, 60.010669, 246.683245)" fill="none" stroke-linejoin="round" d="M 2071.944077 2249.332555 L 2180.046859 2249.332555 L 2180.046859 2354.843426 L 2071.944077 2354.843426 Z M 2071.944077 2249.332555 " stroke="#181821" stroke-width="28" stroke-opacity="1" stroke-miterlimit="10"/><path fill="#000000" d="M 199.667969 105.1875 L 193.179688 105.1875 L 193.179688 111.527344 L 199.667969 111.527344 L 199.667969 105.1875 " fill-opacity="1" fill-rule="nonzero"/><path stroke-linecap="round" transform="matrix(0.0599834, 0, 0, -0.0600871, 60.010669, 246.683245)" fill="none" stroke-linejoin="round" d="M 2220.096986 2249.332555 L 2328.264889 2249.332555 L 2328.264889 2354.843426 L 2220.096986 2354.843426 Z M 2220.096986 2249.332555 " stroke="#181821" stroke-width="28" stroke-opacity="1" stroke-miterlimit="10"/><path fill="#000000" d="M 208.554688 105.1875 L 202.0625 105.1875 L 202.0625 111.527344 L 208.554688 111.527344 L 208.554688 105.1875 " fill-opacity="1" fill-rule="nonzero"/><path stroke-linecap="round" transform="matrix(0.0599834, 0, 0, -0.0600871, 60.010669, 246.683245)" fill="none" stroke-linejoin="round" d="M 2368.184772 2249.332555 L 2476.417798 2249.332555 L 2476.417798 2354.843426 L 2368.184772 2354.843426 Z M 2368.184772 2249.332555 " stroke="#181821" stroke-width="28" stroke-opacity="1" stroke-miterlimit="10"/><path fill="#000000" d="M 217.445312 105.1875 L 210.953125 105.1875 L 210.953125 111.527344 L 217.445312 111.527344 L 217.445312 105.1875 " fill-opacity="1" fill-rule="nonzero"/><path stroke-linecap="round" transform="matrix(0.0599834, 0, 0, -0.0600871, 60.010669, 246.683245)" fill="none" stroke-linejoin="round" d="M 2516.402803 2249.332555 L 2624.635829 2249.332555 L 2624.635829 2354.843426 L 2516.402803 2354.843426 Z M 2516.402803 2249.332555 " stroke="#181821" stroke-width="28" stroke-opacity="1" stroke-miterlimit="10"/><path fill="#000000" d="M 164.113281 114.496094 L 157.625 114.496094 L 157.625 120.835938 L 164.113281 120.835938 L 164.113281 114.496094 " fill-opacity="1" fill-rule="nonzero"/><path stroke-linecap="round" transform="matrix(0.0599834, 0, 0, -0.0600871, 60.010669, 246.683245)" fill="none" stroke-linejoin="round" d="M 1627.355106 2094.41425 L 1735.52301 2094.41425 L 1735.52301 2199.925122 L 1627.355106 2199.925122 Z M 1627.355106 2094.41425 " stroke="#181821" stroke-width="28" stroke-opacity="1" stroke-miterlimit="10"/><path fill="#000000" d="M 173.003906 114.496094 L 166.515625 114.496094 L 166.515625 120.835938 L 173.003906 120.835938 L 173.003906 114.496094 " fill-opacity="1" fill-rule="nonzero"/><path stroke-linecap="round" transform="matrix(0.0599834, 0, 0, -0.0600871, 60.010669, 246.683245)" fill="none" stroke-linejoin="round" d="M 1775.573137 2094.41425 L 1883.741041 2094.41425 L 1883.741041 2199.925122 L 1775.573137 2199.925122 Z M 1775.573137 2094.41425 " stroke="#181821" stroke-width="28" stroke-opacity="1" stroke-miterlimit="10"/><path fill="#000000" d="M 181.890625 114.496094 L 175.402344 114.496094 L 175.402344 120.835938 L 181.890625 120.835938 L 181.890625 114.496094 " fill-opacity="1" fill-rule="nonzero"/><path stroke-linecap="round" transform="matrix(0.0599834, 0, 0, -0.0600871, 60.010669, 246.683245)" fill="none" stroke-linejoin="round" d="M 1923.726046 2094.41425 L 2031.89395 2094.41425 L 2031.89395 2199.925122 L 1923.726046 2199.925122 Z M 1923.726046 2094.41425 " stroke="#181821" stroke-width="28" stroke-opacity="1" stroke-miterlimit="10"/><path fill="#000000" d="M 190.777344 114.496094 L 184.292969 114.496094 L 184.292969 120.835938 L 190.777344 120.835938 L 190.777344 114.496094 " fill-opacity="1" fill-rule="nonzero"/><path stroke-linecap="round" transform="matrix(0.0599834, 0, 0, -0.0600871, 60.010669, 246.683245)" fill="none" stroke-linejoin="round" d="M 2071.944077 2094.41425 L 2180.046859 2094.41425 L 2180.046859 2199.925122 L 2071.944077 2199.925122 Z M 2071.944077 2094.41425 " stroke="#181821" stroke-width="28" stroke-opacity="1" stroke-miterlimit="10"/><path fill="#000000" d="M 199.667969 114.496094 L 193.179688 114.496094 L 193.179688 120.835938 L 199.667969 120.835938 L 199.667969 114.496094 " fill-opacity="1" fill-rule="nonzero"/><path stroke-linecap="round" transform="matrix(0.0599834, 0, 0, -0.0600871, 60.010669, 246.683245)" fill="none" stroke-linejoin="round" d="M 2220.096986 2094.41425 L 2328.264889 2094.41425 L 2328.264889 2199.925122 L 2220.096986 2199.925122 Z M 2220.096986 2094.41425 " stroke="#181821" stroke-width="28" stroke-opacity="1" stroke-miterlimit="10"/><path fill="#000000" d="M 208.554688 114.496094 L 202.0625 114.496094 L 202.0625 120.835938 L 208.554688 120.835938 L 208.554688 114.496094 " fill-opacity="1" fill-rule="nonzero"/><path stroke-linecap="round" transform="matrix(0.0599834, 0, 0, -0.0600871, 60.010669, 246.683245)" fill="none" stroke-linejoin="round" d="M 2368.184772 2094.41425 L 2476.417798 2094.41425 L 2476.417798 2199.925122 L 2368.184772 2199.925122 Z M 2368.184772 2094.41425 " stroke="#181821" stroke-width="28" stroke-opacity="1" stroke-miterlimit="10"/><path fill="#000000" d="M 217.445312 114.496094 L 210.953125 114.496094 L 210.953125 120.835938 L 217.445312 120.835938 L 217.445312 114.496094 " fill-opacity="1" fill-rule="nonzero"/><path stroke-linecap="round" transform="matrix(0.0599834, 0, 0, -0.0600871, 60.010669, 246.683245)" fill="none" stroke-linejoin="round" d="M 2516.402803 2094.41425 L 2624.635829 2094.41425 L 2624.635829 2199.925122 L 2516.402803 2199.925122 Z M 2516.402803 2094.41425 " stroke="#181821" stroke-width="28" stroke-opacity="1" stroke-miterlimit="10"/><path fill="#000000" d="M 164.113281 123.804688 L 157.625 123.804688 L 157.625 130.148438 L 164.113281 130.148438 L 164.113281 123.804688 " fill-opacity="1" fill-rule="nonzero"/><path stroke-linecap="round" transform="matrix(0.0599834, 0, 0, -0.0600871, 60.010669, 246.683245)" fill="none" stroke-linejoin="round" d="M 1627.355106 1939.430936 L 1735.52301 1939.430936 L 1735.52301 2045.006818 L 1627.355106 2045.006818 Z M 1627.355106 1939.430936 " stroke="#181821" stroke-width="28" stroke-opacity="1" stroke-miterlimit="10"/><path fill="#000000" d="M 173.003906 123.804688 L 166.515625 123.804688 L 166.515625 130.148438 L 173.003906 130.148438 L 173.003906 123.804688 " fill-opacity="1" fill-rule="nonzero"/><path stroke-linecap="round" transform="matrix(0.0599834, 0, 0, -0.0600871, 60.010669, 246.683245)" fill="none" stroke-linejoin="round" d="M 1775.573137 1939.430936 L 1883.741041 1939.430936 L 1883.741041 2045.006818 L 1775.573137 2045.006818 Z M 1775.573137 1939.430936 " stroke="#181821" stroke-width="28" stroke-opacity="1" stroke-miterlimit="10"/><path fill="#000000" d="M 181.890625 123.804688 L 175.402344 123.804688 L 175.402344 130.148438 L 181.890625 130.148438 L 181.890625 123.804688 " fill-opacity="1" fill-rule="nonzero"/><path stroke-linecap="round" transform="matrix(0.0599834, 0, 0, -0.0600871, 60.010669, 246.683245)" fill="none" stroke-linejoin="round" d="M 1923.726046 1939.430936 L 2031.89395 1939.430936 L 2031.89395 2045.006818 L 1923.726046 2045.006818 Z M 1923.726046 1939.430936 " stroke="#181821" stroke-width="28" stroke-opacity="1" stroke-miterlimit="10"/><path fill="#000000" d="M 190.777344 123.804688 L 184.292969 123.804688 L 184.292969 130.148438 L 190.777344 130.148438 L 190.777344 123.804688 " fill-opacity="1" fill-rule="nonzero"/><path stroke-linecap="round" transform="matrix(0.0599834, 0, 0, -0.0600871, 60.010669, 246.683245)" fill="none" stroke-linejoin="round" d="M 2071.944077 1939.430936 L 2180.046859 1939.430936 L 2180.046859 2045.006818 L 2071.944077 2045.006818 Z M 2071.944077 1939.430936 " stroke="#181821" stroke-width="28" stroke-opacity="1" stroke-miterlimit="10"/><path fill="#000000" d="M 199.667969 123.804688 L 193.179688 123.804688 L 193.179688 130.148438 L 199.667969 130.148438 L 199.667969 123.804688 " fill-opacity="1" fill-rule="nonzero"/><path stroke-linecap="round" transform="matrix(0.0599834, 0, 0, -0.0600871, 60.010669, 246.683245)" fill="none" stroke-linejoin="round" d="M 2220.096986 1939.430936 L 2328.264889 1939.430936 L 2328.264889 2045.006818 L 2220.096986 2045.006818 Z M 2220.096986 1939.430936 " stroke="#181821" stroke-width="28" stroke-opacity="1" stroke-miterlimit="10"/><path fill="#000000" d="M 208.554688 123.804688 L 202.0625 123.804688 L 202.0625 130.148438 L 208.554688 130.148438 L 208.554688 123.804688 " fill-opacity="1" fill-rule="nonzero"/><path stroke-linecap="round" transform="matrix(0.0599834, 0, 0, -0.0600871, 60.010669, 246.683245)" fill="none" stroke-linejoin="round" d="M 2368.184772 1939.430936 L 2476.417798 1939.430936 L 2476.417798 2045.006818 L 2368.184772 2045.006818 Z M 2368.184772 1939.430936 " stroke="#181821" stroke-width="28" stroke-opacity="1" stroke-miterlimit="10"/><path fill="#000000" d="M 217.445312 123.804688 L 210.953125 123.804688 L 210.953125 130.148438 L 217.445312 130.148438 L 217.445312 123.804688 " fill-opacity="1" fill-rule="nonzero"/><path stroke-linecap="round" transform="matrix(0.0599834, 0, 0, -0.0600871, 60.010669, 246.683245)" fill="none" stroke-linejoin="round" d="M 2516.402803 1939.430936 L 2624.635829 1939.430936 L 2624.635829 2045.006818 L 2516.402803 2045.006818 Z M 2516.402803 1939.430936 " stroke="#181821" stroke-width="28" stroke-opacity="1" stroke-miterlimit="10"/><path fill="#000000" d="M 164.113281 133.113281 L 157.625 133.113281 L 157.625 139.457031 L 164.113281 139.457031 L 164.113281 133.113281 " fill-opacity="1" fill-rule="nonzero"/><path stroke-linecap="round" transform="matrix(0.0599834, 0, 0, -0.0600871, 60.010669, 246.683245)" fill="none" stroke-linejoin="round" d="M 1627.355106 1784.512632 L 1735.52301 1784.512632 L 1735.52301 1890.088514 L 1627.355106 1890.088514 Z M 1627.355106 1784.512632 " stroke="#181821" stroke-width="28" stroke-opacity="1" stroke-miterlimit="10"/><path fill="#000000" d="M 173.003906 133.113281 L 166.515625 133.113281 L 166.515625 139.457031 L 173.003906 139.457031 L 173.003906 133.113281 " fill-opacity="1" fill-rule="nonzero"/><path stroke-linecap="round" transform="matrix(0.0599834, 0, 0, -0.0600871, 60.010669, 246.683245)" fill="none" stroke-linejoin="round" d="M 1775.573137 1784.512632 L 1883.741041 1784.512632 L 1883.741041 1890.088514 L 1775.573137 1890.088514 Z M 1775.573137 1784.512632 " stroke="#181821" stroke-width="28" stroke-opacity="1" stroke-miterlimit="10"/><path fill="#000000" d="M 181.890625 133.113281 L 175.402344 133.113281 L 175.402344 139.457031 L 181.890625 139.457031 L 181.890625 133.113281 " fill-opacity="1" fill-rule="nonzero"/><path stroke-linecap="round" transform="matrix(0.0599834, 0, 0, -0.0600871, 60.010669, 246.683245)" fill="none" stroke-linejoin="round" d="M 1923.726046 1784.512632 L 2031.89395 1784.512632 L 2031.89395 1890.088514 L 1923.726046 1890.088514 Z M 1923.726046 1784.512632 " stroke="#181821" stroke-width="28" stroke-opacity="1" stroke-miterlimit="10"/><path fill="#000000" d="M 190.777344 133.113281 L 184.292969 133.113281 L 184.292969 139.457031 L 190.777344 139.457031 L 190.777344 133.113281 " fill-opacity="1" fill-rule="nonzero"/><path stroke-linecap="round" transform="matrix(0.0599834, 0, 0, -0.0600871, 60.010669, 246.683245)" fill="none" stroke-linejoin="round" d="M 2071.944077 1784.512632 L 2180.046859 1784.512632 L 2180.046859 1890.088514 L 2071.944077 1890.088514 Z M 2071.944077 1784.512632 " stroke="#181821" stroke-width="28" stroke-opacity="1" stroke-miterlimit="10"/><path fill="#000000" d="M 199.667969 133.113281 L 193.179688 133.113281 L 193.179688 139.457031 L 199.667969 139.457031 L 199.667969 133.113281 " fill-opacity="1" fill-rule="nonzero"/><path stroke-linecap="round" transform="matrix(0.0599834, 0, 0, -0.0600871, 60.010669, 246.683245)" fill="none" stroke-linejoin="round" d="M 2220.096986 1784.512632 L 2328.264889 1784.512632 L 2328.264889 1890.088514 L 2220.096986 1890.088514 Z M 2220.096986 1784.512632 " stroke="#181821" stroke-width="28" stroke-opacity="1" stroke-miterlimit="10"/><path fill="#000000" d="M 208.554688 133.113281 L 202.0625 133.113281 L 202.0625 139.457031 L 208.554688 139.457031 L 208.554688 133.113281 " fill-opacity="1" fill-rule="nonzero"/><path stroke-linecap="round" transform="matrix(0.0599834, 0, 0, -0.0600871, 60.010669, 246.683245)" fill="none" stroke-linejoin="round" d="M 2368.184772 1784.512632 L 2476.417798 1784.512632 L 2476.417798 1890.088514 L 2368.184772 1890.088514 Z M 2368.184772 1784.512632 " stroke="#181821" stroke-width="28" stroke-opacity="1" stroke-miterlimit="10"/><path fill="#000000" d="M 217.445312 133.113281 L 210.953125 133.113281 L 210.953125 139.457031 L 217.445312 139.457031 L 217.445312 133.113281 " fill-opacity="1" fill-rule="nonzero"/><path stroke-linecap="round" transform="matrix(0.0599834, 0, 0, -0.0600871, 60.010669, 246.683245)" fill="none" stroke-linejoin="round" d="M 2516.402803 1784.512632 L 2624.635829 1784.512632 L 2624.635829 1890.088514 L 2516.402803 1890.088514 Z M 2516.402803 1784.512632 " stroke="#181821" stroke-width="28" stroke-opacity="1" stroke-miterlimit="10"/><path fill="#000000" d="M 164.113281 142.421875 L 157.625 142.421875 L 157.625 148.761719 L 164.113281 148.761719 L 164.113281 142.421875 " fill-opacity="1" fill-rule="nonzero"/><path stroke-linecap="round" transform="matrix(0.0599834, 0, 0, -0.0600871, 60.010669, 246.683245)" fill="none" stroke-linejoin="round" d="M 1627.355106 1629.659338 L 1735.52301 1629.659338 L 1735.52301 1735.17021 L 1627.355106 1735.17021 Z M 1627.355106 1629.659338 " stroke="#181821" stroke-width="28" stroke-opacity="1" stroke-miterlimit="10"/><path fill="#000000" d="M 166.515625 148.761719 L 173.003906 148.761719 L 173.003906 142.421875 L 166.515625 142.421875 L 166.515625 148.761719 " fill-opacity="1" fill-rule="nonzero"/><path stroke-linecap="round" transform="matrix(0.0599834, 0, 0, -0.0600871, 60.010669, 246.683245)" fill="none" stroke-linejoin="round" d="M 1775.573137 1629.659338 L 1883.741041 1629.659338 L 1883.741041 1735.17021 L 1775.573137 1735.17021 Z M 1775.573137 1629.659338 " stroke="#181821" stroke-width="28" stroke-opacity="1" stroke-miterlimit="10"/><path fill="#000000" d="M 175.402344 148.761719 L 181.890625 148.761719 L 181.890625 142.421875 L 175.402344 142.421875 L 175.402344 148.761719 " fill-opacity="1" fill-rule="nonzero"/><path stroke-linecap="round" transform="matrix(0.0599834, 0, 0, -0.0600871, 60.010669, 246.683245)" fill="none" stroke-linejoin="round" d="M 1923.726046 1629.659338 L 2031.89395 1629.659338 L 2031.89395 1735.17021 L 1923.726046 1735.17021 Z M 1923.726046 1629.659338 " stroke="#181821" stroke-width="28" stroke-opacity="1" stroke-miterlimit="10"/><path fill="#000000" d="M 184.292969 148.761719 L 190.777344 148.761719 L 190.777344 142.421875 L 184.292969 142.421875 L 184.292969 148.761719 " fill-opacity="1" fill-rule="nonzero"/><path stroke-linecap="round" transform="matrix(0.0599834, 0, 0, -0.0600871, 60.010669, 246.683245)" fill="none" stroke-linejoin="round" d="M 2071.944077 1629.659338 L 2180.046859 1629.659338 L 2180.046859 1735.17021 L 2071.944077 1735.17021 Z M 2071.944077 1629.659338 " stroke="#181821" stroke-width="28" stroke-opacity="1" stroke-miterlimit="10"/><path fill="#000000" d="M 193.179688 148.761719 L 199.667969 148.761719 L 199.667969 142.421875 L 193.179688 142.421875 L 193.179688 148.761719 " fill-opacity="1" fill-rule="nonzero"/><path stroke-linecap="round" transform="matrix(0.0599834, 0, 0, -0.0600871, 60.010669, 246.683245)" fill="none" stroke-linejoin="round" d="M 2220.096986 1629.659338 L 2328.264889 1629.659338 L 2328.264889 1735.17021 L 2220.096986 1735.17021 Z M 2220.096986 1629.659338 " stroke="#181821" stroke-width="28" stroke-opacity="1" stroke-miterlimit="10"/><path fill="#000000" d="M 202.0625 148.761719 L 208.554688 148.761719 L 208.554688 142.421875 L 202.0625 142.421875 L 202.0625 148.761719 " fill-opacity="1" fill-rule="nonzero"/><path stroke-linecap="round" transform="matrix(0.0599834, 0, 0, -0.0600871, 60.010669, 246.683245)" fill="none" stroke-linejoin="round" d="M 2368.184772 1629.659338 L 2476.417798 1629.659338 L 2476.417798 1735.17021 L 2368.184772 1735.17021 Z M 2368.184772 1629.659338 " stroke="#181821" stroke-width="28" stroke-opacity="1" stroke-miterlimit="10"/><path fill="#000000" d="M 210.953125 148.761719 L 217.445312 148.761719 L 217.445312 142.421875 L 210.953125 142.421875 L 210.953125 148.761719 " fill-opacity="1" fill-rule="nonzero"/><path stroke-linecap="round" transform="matrix(0.0599834, 0, 0, -0.0600871, 60.010669, 246.683245)" fill="none" stroke-linejoin="round" d="M 2516.402803 1629.659338 L 2624.635829 1629.659338 L 2624.635829 1735.17021 L 2516.402803 1735.17021 Z M 2516.402803 1629.659338 " stroke="#181821" stroke-width="28" stroke-opacity="1" stroke-miterlimit="10"/><path fill="#000000" d="M 204.648438 134.675781 L 170.421875 134.675781 L 170.421875 103.695312 L 204.648438 103.695312 L 204.648438 134.675781 " fill-opacity="1" fill-rule="nonzero"/><path stroke-linecap="round" transform="matrix(0.0599834, 0, 0, -0.0600871, 60.010669, 246.683245)" fill="none" stroke-linejoin="round" d="M 2411.29564 1864.084602 L 1840.695295 1864.084602 L 1840.695295 2379.677162 L 2411.29564 2379.677162 Z M 2411.29564 1864.084602 " stroke="#181821" stroke-width="28" stroke-opacity="1" stroke-miterlimit="10"/><path fill="#000000" d="M 180.414062 111.609375 L 173.460938 111.609375 L 173.460938 107.589844 L 180.414062 107.589844 L 180.414062 111.609375 " fill-opacity="1" fill-rule="nonzero"/><path stroke-linecap="round" transform="matrix(0.0599834, 0, 0, -0.0600871, 60.010669, 246.683245)" fill="none" stroke-linejoin="round" d="M 2007.277774 2247.967349 L 1891.360334 2247.967349 L 1891.360334 2314.862412 L 2007.277774 2314.862412 Z M 2007.277774 2247.967349 " stroke="#181821" stroke-width="28" stroke-opacity="1" stroke-miterlimit="10"/><path fill="#000000" d="M 180.414062 118.003906 L 173.460938 118.003906 L 173.460938 113.980469 L 180.414062 113.980469 L 180.414062 118.003906 " fill-opacity="1" fill-rule="nonzero"/><path stroke-linecap="round" transform="matrix(0.0599834, 0, 0, -0.0600871, 60.010669, 246.683245)" fill="none" stroke-linejoin="round" d="M 2007.277774 2141.54634 L 1891.360334 2141.54634 L 1891.360334 2208.506413 L 2007.277774 2208.506413 Z M 2007.277774 2141.54634 " stroke="#181821" stroke-width="28" stroke-opacity="1" stroke-miterlimit="10"/><path fill="#000000" d="M 180.414062 124.390625 L 173.460938 124.390625 L 173.460938 120.367188 L 180.414062 120.367188 L 180.414062 124.390625 " fill-opacity="1" fill-rule="nonzero"/><path stroke-linecap="round" transform="matrix(0.0599834, 0, 0, -0.0600871, 60.010669, 246.683245)" fill="none" stroke-linejoin="round" d="M 2007.277774 2035.255351 L 1891.360334 2035.255351 L 1891.360334 2102.215424 L 2007.277774 2102.215424 Z M 2007.277774 2035.255351 " stroke="#181821" stroke-width="28" stroke-opacity="1" stroke-miterlimit="10"/><path fill="#000000" d="M 180.414062 130.78125 L 173.460938 130.78125 L 173.460938 126.757812 L 180.414062 126.757812 L 180.414062 130.78125 " fill-opacity="1" fill-rule="nonzero"/><path stroke-linecap="round" transform="matrix(0.0599834, 0, 0, -0.0600871, 60.010669, 246.683245)" fill="none" stroke-linejoin="round" d="M 2007.277774 1928.899352 L 1891.360334 1928.899352 L 1891.360334 1995.859425 L 2007.277774 1995.859425 Z M 2007.277774 1928.899352 " stroke="#181821" stroke-width="28" stroke-opacity="1" stroke-miterlimit="10"/><path fill="#000000" d="M 201.613281 111.609375 L 194.65625 111.609375 L 194.65625 107.589844 L 201.613281 107.589844 L 201.613281 111.609375 " fill-opacity="1" fill-rule="nonzero"/><path stroke-linecap="round" transform="matrix(0.0599834, 0, 0, -0.0600871, 60.010669, 246.683245)" fill="none" stroke-linejoin="round" d="M 2360.695724 2247.967349 L 2244.713161 2247.967349 L 2244.713161 2314.862412 L 2360.695724 2314.862412 Z M 2360.695724 2247.967349 " stroke="#181821" stroke-width="28" stroke-opacity="1" stroke-miterlimit="10"/><path fill="#000000" d="M 201.613281 118.003906 L 194.65625 118.003906 L 194.65625 113.980469 L 201.613281 113.980469 L 201.613281 118.003906 " fill-opacity="1" fill-rule="nonzero"/><path stroke-linecap="round" transform="matrix(0.0599834, 0, 0, -0.0600871, 60.010669, 246.683245)" fill="none" stroke-linejoin="round" d="M 2360.695724 2141.54634 L 2244.713161 2141.54634 L 2244.713161 2208.506413 L 2360.695724 2208.506413 Z M 2360.695724 2141.54634 " stroke="#181821" stroke-width="28" stroke-opacity="1" stroke-miterlimit="10"/><path fill="#000000" d="M 201.613281 124.390625 L 194.65625 124.390625 L 194.65625 120.367188 L 201.613281 120.367188 L 201.613281 124.390625 " fill-opacity="1" fill-rule="nonzero"/><path stroke-linecap="round" transform="matrix(0.0599834, 0, 0, -0.0600871, 60.010669, 246.683245)" fill="none" stroke-linejoin="round" d="M 2360.695724 2035.255351 L 2244.713161 2035.255351 L 2244.713161 2102.215424 L 2360.695724 2102.215424 Z M 2360.695724 2035.255351 " stroke="#181821" stroke-width="28" stroke-opacity="1" stroke-miterlimit="10"/><path fill="#000000" d="M 201.613281 130.78125 L 194.65625 130.78125 L 194.65625 126.757812 L 201.613281 126.757812 L 201.613281 130.78125 " fill-opacity="1" fill-rule="nonzero"/><path stroke-linecap="round" transform="matrix(0.0599834, 0, 0, -0.0600871, 60.010669, 246.683245)" fill="none" stroke-linejoin="round" d="M 2360.695724 1928.899352 L 2244.713161 1928.899352 L 2244.713161 1995.859425 L 2360.695724 1995.859425 Z M 2360.695724 1928.899352 " stroke="#181821" stroke-width="28" stroke-opacity="1" stroke-miterlimit="10"/><path fill="#000000" d="M 191.703125 111.609375 L 184.75 111.609375 L 184.75 107.589844 L 191.703125 107.589844 L 191.703125 111.609375 " fill-opacity="1" fill-rule="nonzero"/><path stroke-linecap="round" transform="matrix(0.0599834, 0, 0, -0.0600871, 60.010669, 246.683245)" fill="none" stroke-linejoin="round" d="M 2195.48081 2247.967349 L 2079.563369 2247.967349 L 2079.563369 2314.862412 L 2195.48081 2314.862412 Z M 2195.48081 2247.967349 " stroke="#181821" stroke-width="28" stroke-opacity="1" stroke-miterlimit="10"/><path fill="#000000" d="M 191.703125 118.003906 L 184.75 118.003906 L 184.75 113.980469 L 191.703125 113.980469 L 191.703125 118.003906 " fill-opacity="1" fill-rule="nonzero"/><path stroke-linecap="round" transform="matrix(0.0599834, 0, 0, -0.0600871, 60.010669, 246.683245)" fill="none" stroke-linejoin="round" d="M 2195.48081 2141.54634 L 2079.563369 2141.54634 L 2079.563369 2208.506413 L 2195.48081 2208.506413 Z M 2195.48081 2141.54634 " stroke="#181821" stroke-width="28" stroke-opacity="1" stroke-miterlimit="10"/><g fill="#ffffff" fill-opacity="1"><g transform="translate(172.777234, 140.233108)"><g><path d="M 2.9375 0 L 7.34375 0 L 7.34375 -36.371094 L 2.9375 -36.371094 Z M 2.9375 -36.960938 L 25.265625 -36.960938 L 25.265625 -41.132812 L 2.9375 -41.132812 Z M 7.933594 -19.625 L 25.265625 -19.625 L 25.265625 -23.796875 L 7.933594 -23.796875 Z M 25.855469 -19.625 L 30.261719 -23.738281 L 30.261719 -36.960938 L 25.855469 -41.132812 Z M 25.855469 -19.625 "/></g></g></g></svg>